<svg aria-roledescription="er" role="graphics-document document" viewBox="0 0 1712.3948974609375 430" style="max-width: 1712.39px; background-color: transparent;" xmlns:xlink="http://www.w3.org/1999/xlink" xmlns="http://www.w3.org/2000/svg" width="100%" id="my-svg"><style>#my-svg{font-family:"trebuchet ms",verdana,arial,sans-serif;font-size:16px;fill:#333;}#my-svg .error-icon{fill:#552222;}#my-svg .error-text{fill:#552222;stroke:#552222;}#my-svg .edge-thickness-normal{stroke-width:2px;}#my-svg .edge-thickness-thick{stroke-width:3.5px;}#my-svg .edge-pattern-solid{stroke-dasharray:0;}#my-svg .edge-pattern-dashed{stroke-dasharray:3;}#my-svg .edge-pattern-dotted{stroke-dasharray:2;}#my-svg .marker{fill:#333333;stroke:#333333;}#my-svg .marker.cross{stroke:#333333;}#my-svg svg{font-family:"trebuchet ms",verdana,arial,sans-serif;font-size:16px;}#my-svg .entityBox{fill:#ECECFF;stroke:#9370DB;}#my-svg .attributeBoxOdd{fill:#ffffff;stroke:#9370DB;}#my-svg .attributeBoxEven{fill:#f2f2f2;stroke:#9370DB;}#my-svg .relationshipLabelBox{fill:hsl(80, 100%, 96.2745098039%);opacity:0.7;background-color:hsl(80, 100%, 96.2745098039%);}#my-svg .relationshipLabelBox rect{opacity:0.5;}#my-svg .relationshipLine{stroke:#333333;}#my-svg .entityTitleText{text-anchor:middle;font-size:18px;fill:#333;}#my-svg #MD_PARENT_START{fill:#f5f5f5!important;stroke:#333333!important;stroke-width:1;}#my-svg #MD_PARENT_END{fill:#f5f5f5!important;stroke:#333333!important;stroke-width:1;}#my-svg :root{--mermaid-font-family:"trebuchet ms",verdana,arial,sans-serif;}</style><g/><defs><marker orient="auto" markerHeight="240" markerWidth="190" refY="7" refX="0" id="MD_PARENT_START"><path d="M 18,7 L9,13 L1,7 L9,1 Z"/></marker></defs><defs><marker orient="auto" markerHeight="28" markerWidth="20" refY="7" refX="19" id="MD_PARENT_END"><path d="M 18,7 L9,13 L1,7 L9,1 Z"/></marker></defs><defs><marker orient="auto" markerHeight="18" markerWidth="18" refY="9" refX="0" id="ONLY_ONE_START"><path d="M9,0 L9,18 M15,0 L15,18" fill="none" stroke="gray"/></marker></defs><defs><marker orient="auto" markerHeight="18" markerWidth="18" refY="9" refX="18" id="ONLY_ONE_END"><path d="M3,0 L3,18 M9,0 L9,18" fill="none" stroke="gray"/></marker></defs><defs><marker orient="auto" markerHeight="18" markerWidth="30" refY="9" refX="0" id="ZERO_OR_ONE_START"><circle r="6" cy="9" cx="21" fill="white" stroke="gray"/><path d="M9,0 L9,18" fill="none" stroke="gray"/></marker></defs><defs><marker orient="auto" markerHeight="18" markerWidth="30" refY="9" refX="30" id="ZERO_OR_ONE_END"><circle r="6" cy="9" cx="9" fill="white" stroke="gray"/><path d="M21,0 L21,18" fill="none" stroke="gray"/></marker></defs><defs><marker orient="auto" markerHeight="36" markerWidth="45" refY="18" refX="18" id="ONE_OR_MORE_START"><path d="M0,18 Q 18,0 36,18 Q 18,36 0,18 M42,9 L42,27" fill="none" stroke="gray"/></marker></defs><defs><marker orient="auto" markerHeight="36" markerWidth="45" refY="18" refX="27" id="ONE_OR_MORE_END"><path d="M3,9 L3,27 M9,18 Q27,0 45,18 Q27,36 9,18" fill="none" stroke="gray"/></marker></defs><defs><marker orient="auto" markerHeight="36" markerWidth="57" refY="18" refX="18" id="ZERO_OR_MORE_START"><circle r="6" cy="18" cx="48" fill="white" stroke="gray"/><path d="M0,18 Q18,0 36,18 Q18,36 0,18" fill="none" stroke="gray"/></marker></defs><defs><marker orient="auto" markerHeight="36" markerWidth="57" refY="18" refX="39" id="ZERO_OR_MORE_END"><circle r="6" cy="18" cx="9" fill="white" stroke="gray"/><path d="M21,18 Q39,0 57,18 Q39,36 21,18" fill="none" stroke="gray"/></marker></defs><path style="stroke: gray; fill: none;" marker-start="url(#ONLY_ONE_START)" marker-end="url(#ONE_OR_MORE_END)" d="M804.9399566650391,107.36737997752152L686.9972076416016,127.13948331460126C569.0544586181641,146.911586651681,333.16896057128906,186.45579332584052,215.22621154785156,214.5612299962536C97.28346252441406,242.66666666666666,97.28346252441406,259.3333333333333,97.28346252441406,267.6666666666667L97.28346252441406,276" class="er relationshipLine"/><path style="stroke: gray; fill: none;" marker-start="url(#ONLY_ONE_START)" marker-end="url(#ONE_OR_MORE_END)" d="M804.9399566650391,112.05260528182592L729.4250284830729,131.04383773485492C653.9101003011068,150.03507018788395,502.8802439371745,188.01753509394197,427.3653157552083,219.00876754697097C351.8503875732422,250,351.8503875732422,274,351.8503875732422,286L351.8503875732422,298" class="er relationshipLine"/><path style="stroke: gray; fill: none;" marker-start="url(#ONLY_ONE_START)" marker-end="url(#ONE_OR_MORE_END)" d="M804.9399566650391,126.11442648445055L771.8528493245443,142.76202207037545C738.7657419840494,159.40961765630036,672.5915273030599,192.70480882815016,639.5044199625651,217.68573774740844C606.4173126220703,242.66666666666666,606.4173126220703,259.3333333333333,606.4173126220703,267.6666666666667L606.4173126220703,276" class="er relationshipLine"/><path style="stroke: gray; fill: none;" marker-start="url(#ONLY_ONE_START)" marker-end="url(#ONE_OR_MORE_END)" d="M860.8173980712891,176L860.8173980712891,184.33333333333334C860.8173980712891,192.66666666666666,860.8173980712891,209.33333333333334,860.8173980712891,231.5C860.8173980712891,253.66666666666666,860.8173980712891,281.3333333333333,860.8173980712891,295.1666666666667L860.8173980712891,309" class="er relationshipLine"/><path style="stroke: gray; fill: none;" marker-start="url(#ONLY_ONE_START)" marker-end="url(#ONE_OR_MORE_END)" d="M916.6948394775391,126.63443008737084L949.0119590759277,143.1953584061424C981.3290786743164,159.7562867249139,1045.9633178710938,192.87814336245697,1078.2804374694824,221.43907168122848C1110.597557067871,250,1110.597557067871,274,1110.597557067871,286L1110.597557067871,298" class="er relationshipLine"/><path style="stroke: gray; fill: none;" marker-start="url(#ONLY_ONE_START)" marker-end="url(#ONE_OR_MORE_END)" d="M916.6948394775391,112.31243507848018L990.669792175293,131.26036256540013C1064.6447448730469,150.2082900523201,1212.5946502685547,188.10414502616004,1286.5696029663086,219.05207251308002C1360.5445556640625,250,1360.5445556640625,274,1360.5445556640625,286L1360.5445556640625,298" class="er relationshipLine"/><path style="stroke: gray; fill: none;" marker-start="url(#ONLY_ONE_START)" marker-end="url(#ONE_OR_MORE_END)" d="M916.6948394775391,107.48212728244135L1033.0976130167644,127.23510606870111C1149.5003865559895,146.9880848549609,1382.3059336344402,186.49404242748042,1498.7087071736653,218.24702121374023C1615.1114807128906,250,1615.1114807128906,274,1615.1114807128906,286L1615.1114807128906,298" class="er relationshipLine"/><g transform="translate(804.9399566650391,20 )" id="entity-GAMESESSION-5a63c56d-27c6-5cfe-8794-204dc5513667"><rect height="156" width="111.7548828125" y="0" x="0" class="er entityBox"/><text style="dominant-baseline: middle; text-anchor: middle; font-size: 12px;" transform="translate(55.87744140625,12)" y="0" x="0" id="text-entity-GAMESESSION-5a63c56d-27c6-5cfe-8794-204dc5513667" class="er entityLabel">GAME_SESSION</text><rect height="22" width="43.208251953125" y="24" x="0" class="er attributeBoxOdd"/><text style="dominant-baseline: middle; font-size: 10.2px;" transform="translate(5,35)" y="0" x="0" id="text-entity-GAMESESSION-5a63c56d-27c6-5cfe-8794-204dc5513667-attr-1-type" class="er entityLabel">id</text><rect height="22" width="45.85894775390625" y="24" x="43.208251953125" class="er attributeBoxOdd"/><text style="dominant-baseline: middle; font-size: 10.2px;" transform="translate(48.208251953125,35)" y="0" x="0" id="text-entity-GAMESESSION-5a63c56d-27c6-5cfe-8794-204dc5513667-attr-1-name" class="er entityLabel">string</text><rect height="22" width="22.68768310546875" y="24" x="89.06719970703125" class="er attributeBoxOdd"/><text style="dominant-baseline: middle; font-size: 10.2px;" transform="translate(94.06719970703125,35)" y="0" x="0" id="text-entity-GAMESESSION-5a63c56d-27c6-5cfe-8794-204dc5513667-attr-1-key" class="er entityLabel">PK</text><rect height="22" width="43.208251953125" y="46" x="0" class="er attributeBoxEven"/><text style="dominant-baseline: middle; font-size: 10.2px;" transform="translate(5,57)" y="0" x="0" id="text-entity-GAMESESSION-5a63c56d-27c6-5cfe-8794-204dc5513667-attr-2-type" class="er entityLabel">state</text><rect height="22" width="45.85894775390625" y="46" x="43.208251953125" class="er attributeBoxEven"/><text style="dominant-baseline: middle; font-size: 10.2px;" transform="translate(48.208251953125,57)" y="0" x="0" id="text-entity-GAMESESSION-5a63c56d-27c6-5cfe-8794-204dc5513667-attr-2-name" class="er entityLabel">string</text><rect height="22" width="22.68768310546875" y="46" x="89.06719970703125" class="er attributeBoxEven"/><text style="dominant-baseline: middle; font-size: 10.2px;" transform="translate(94.06719970703125,57)" y="0" x="0" id="text-entity-GAMESESSION-5a63c56d-27c6-5cfe-8794-204dc5513667-attr-2-key" class="er entityLabel"/><rect height="22" width="43.208251953125" y="68" x="0" class="er attributeBoxOdd"/><text style="dominant-baseline: middle; font-size: 10.2px;" transform="translate(5,79)" y="0" x="0" id="text-entity-GAMESESSION-5a63c56d-27c6-5cfe-8794-204dc5513667-attr-3-type" class="er entityLabel">round</text><rect height="22" width="45.85894775390625" y="68" x="43.208251953125" class="er attributeBoxOdd"/><text style="dominant-baseline: middle; font-size: 10.2px;" transform="translate(48.208251953125,79)" y="0" x="0" id="text-entity-GAMESESSION-5a63c56d-27c6-5cfe-8794-204dc5513667-attr-3-name" class="er entityLabel">number</text><rect height="22" width="22.68768310546875" y="68" x="89.06719970703125" class="er attributeBoxOdd"/><text style="dominant-baseline: middle; font-size: 10.2px;" transform="translate(94.06719970703125,79)" y="0" x="0" id="text-entity-GAMESESSION-5a63c56d-27c6-5cfe-8794-204dc5513667-attr-3-key" class="er entityLabel"/><rect height="22" width="43.208251953125" y="90" x="0" class="er attributeBoxEven"/><text style="dominant-baseline: middle; font-size: 10.2px;" transform="translate(5,101)" y="0" x="0" id="text-entity-GAMESESSION-5a63c56d-27c6-5cfe-8794-204dc5513667-attr-4-type" class="er entityLabel">turn</text><rect height="22" width="45.85894775390625" y="90" x="43.208251953125" class="er attributeBoxEven"/><text style="dominant-baseline: middle; font-size: 10.2px;" transform="translate(48.208251953125,101)" y="0" x="0" id="text-entity-GAMESESSION-5a63c56d-27c6-5cfe-8794-204dc5513667-attr-4-name" class="er entityLabel">string</text><rect height="22" width="22.68768310546875" y="90" x="89.06719970703125" class="er attributeBoxEven"/><text style="dominant-baseline: middle; font-size: 10.2px;" transform="translate(94.06719970703125,101)" y="0" x="0" id="text-entity-GAMESESSION-5a63c56d-27c6-5cfe-8794-204dc5513667-attr-4-key" class="er entityLabel"/><rect height="22" width="43.208251953125" y="112" x="0" class="er attributeBoxOdd"/><text style="dominant-baseline: middle; font-size: 10.2px;" transform="translate(5,123)" y="0" x="0" id="text-entity-GAMESESSION-5a63c56d-27c6-5cfe-8794-204dc5513667-attr-5-type" class="er entityLabel">phase</text><rect height="22" width="45.85894775390625" y="112" x="43.208251953125" class="er attributeBoxOdd"/><text style="dominant-baseline: middle; font-size: 10.2px;" transform="translate(48.208251953125,123)" y="0" x="0" id="text-entity-GAMESESSION-5a63c56d-27c6-5cfe-8794-204dc5513667-attr-5-name" class="er entityLabel">string</text><rect height="22" width="22.68768310546875" y="112" x="89.06719970703125" class="er attributeBoxOdd"/><text style="dominant-baseline: middle; font-size: 10.2px;" transform="translate(94.06719970703125,123)" y="0" x="0" id="text-entity-GAMESESSION-5a63c56d-27c6-5cfe-8794-204dc5513667-attr-5-key" class="er entityLabel"/><rect height="22" width="43.208251953125" y="134" x="0" class="er attributeBoxEven"/><text style="dominant-baseline: middle; font-size: 10.2px;" transform="translate(5,145)" y="0" x="0" id="text-entity-GAMESESSION-5a63c56d-27c6-5cfe-8794-204dc5513667-attr-6-type" class="er entityLabel">winner</text><rect height="22" width="45.85894775390625" y="134" x="43.208251953125" class="er attributeBoxEven"/><text style="dominant-baseline: middle; font-size: 10.2px;" transform="translate(48.208251953125,145)" y="0" x="0" id="text-entity-GAMESESSION-5a63c56d-27c6-5cfe-8794-204dc5513667-attr-6-name" class="er entityLabel">string</text><rect height="22" width="22.68768310546875" y="134" x="89.06719970703125" class="er attributeBoxEven"/><text style="dominant-baseline: middle; font-size: 10.2px;" transform="translate(94.06719970703125,145)" y="0" x="0" id="text-entity-GAMESESSION-5a63c56d-27c6-5cfe-8794-204dc5513667-attr-6-key" class="er entityLabel"/></g><g transform="translate(20,276 )" id="entity-PLAYER-09044be7-efdd-5fb9-97db-80dc92021a88"><rect height="134" width="154.56692504882812" y="0" x="0" class="er entityBox"/><text style="dominant-baseline: middle; text-anchor: middle; font-size: 12px;" transform="translate(77.28346252441406,12)" y="0" x="0" id="text-entity-PLAYER-09044be7-efdd-5fb9-97db-80dc92021a88" class="er entityLabel">PLAYER</text><rect height="22" width="86.02029418945312" y="24" x="0" class="er attributeBoxOdd"/><text style="dominant-baseline: middle; font-size: 10.2px;" transform="translate(5,35)" y="0" x="0" id="text-entity-PLAYER-09044be7-efdd-5fb9-97db-80dc92021a88-attr-1-type" class="er entityLabel">id</text><rect height="22" width="45.85894775390625" y="24" x="86.02029418945312" class="er attributeBoxOdd"/><text style="dominant-baseline: middle; font-size: 10.2px;" transform="translate(91.02029418945312,35)" y="0" x="0" id="text-entity-PLAYER-09044be7-efdd-5fb9-97db-80dc92021a88-attr-1-name" class="er entityLabel">string</text><rect height="22" width="22.68768310546875" y="24" x="131.87924194335938" class="er attributeBoxOdd"/><text style="dominant-baseline: middle; font-size: 10.2px;" transform="translate(136.87924194335938,35)" y="0" x="0" id="text-entity-PLAYER-09044be7-efdd-5fb9-97db-80dc92021a88-attr-1-key" class="er entityLabel">PK</text><rect height="22" width="86.02029418945312" y="46" x="0" class="er attributeBoxEven"/><text style="dominant-baseline: middle; font-size: 10.2px;" transform="translate(5,57)" y="0" x="0" id="text-entity-PLAYER-09044be7-efdd-5fb9-97db-80dc92021a88-attr-2-type" class="er entityLabel">name</text><rect height="22" width="45.85894775390625" y="46" x="86.02029418945312" class="er attributeBoxEven"/><text style="dominant-baseline: middle; font-size: 10.2px;" transform="translate(91.02029418945312,57)" y="0" x="0" id="text-entity-PLAYER-09044be7-efdd-5fb9-97db-80dc92021a88-attr-2-name" class="er entityLabel">string</text><rect height="22" width="22.68768310546875" y="46" x="131.87924194335938" class="er attributeBoxEven"/><text style="dominant-baseline: middle; font-size: 10.2px;" transform="translate(136.87924194335938,57)" y="0" x="0" id="text-entity-PLAYER-09044be7-efdd-5fb9-97db-80dc92021a88-attr-2-key" class="er entityLabel"/><rect height="22" width="86.02029418945312" y="68" x="0" class="er attributeBoxOdd"/><text style="dominant-baseline: middle; font-size: 10.2px;" transform="translate(5,79)" y="0" x="0" id="text-entity-PLAYER-09044be7-efdd-5fb9-97db-80dc92021a88-attr-3-type" class="er entityLabel">role</text><rect height="22" width="45.85894775390625" y="68" x="86.02029418945312" class="er attributeBoxOdd"/><text style="dominant-baseline: middle; font-size: 10.2px;" transform="translate(91.02029418945312,79)" y="0" x="0" id="text-entity-PLAYER-09044be7-efdd-5fb9-97db-80dc92021a88-attr-3-name" class="er entityLabel">string</text><rect height="22" width="22.68768310546875" y="68" x="131.87924194335938" class="er attributeBoxOdd"/><text style="dominant-baseline: middle; font-size: 10.2px;" transform="translate(136.87924194335938,79)" y="0" x="0" id="text-entity-PLAYER-09044be7-efdd-5fb9-97db-80dc92021a88-attr-3-key" class="er entityLabel"/><rect height="22" width="86.02029418945312" y="90" x="0" class="er attributeBoxEven"/><text style="dominant-baseline: middle; font-size: 10.2px;" transform="translate(5,101)" y="0" x="0" id="text-entity-PLAYER-09044be7-efdd-5fb9-97db-80dc92021a88-attr-4-type" class="er entityLabel">score</text><rect height="22" width="45.85894775390625" y="90" x="86.02029418945312" class="er attributeBoxEven"/><text style="dominant-baseline: middle; font-size: 10.2px;" transform="translate(91.02029418945312,101)" y="0" x="0" id="text-entity-PLAYER-09044be7-efdd-5fb9-97db-80dc92021a88-attr-4-name" class="er entityLabel">number</text><rect height="22" width="22.68768310546875" y="90" x="131.87924194335938" class="er attributeBoxEven"/><text style="dominant-baseline: middle; font-size: 10.2px;" transform="translate(136.87924194335938,101)" y="0" x="0" id="text-entity-PLAYER-09044be7-efdd-5fb9-97db-80dc92021a88-attr-4-key" class="er entityLabel"/><rect height="22" width="86.02029418945312" y="112" x="0" class="er attributeBoxOdd"/><text style="dominant-baseline: middle; font-size: 10.2px;" transform="translate(5,123)" y="0" x="0" id="text-entity-PLAYER-09044be7-efdd-5fb9-97db-80dc92021a88-attr-5-type" class="er entityLabel">game_session_id</text><rect height="22" width="45.85894775390625" y="112" x="86.02029418945312" class="er attributeBoxOdd"/><text style="dominant-baseline: middle; font-size: 10.2px;" transform="translate(91.02029418945312,123)" y="0" x="0" id="text-entity-PLAYER-09044be7-efdd-5fb9-97db-80dc92021a88-attr-5-name" class="er entityLabel">string</text><rect height="22" width="22.68768310546875" y="112" x="131.87924194335938" class="er attributeBoxOdd"/><text style="dominant-baseline: middle; font-size: 10.2px;" transform="translate(136.87924194335938,123)" y="0" x="0" id="text-entity-PLAYER-09044be7-efdd-5fb9-97db-80dc92021a88-attr-5-key" class="er entityLabel">FK</text></g><g transform="translate(274.5669250488281,298 )" id="entity-TEAM-a64c3970-9275-559c-a729-8290a050bffc"><rect height="90" width="154.56692504882812" y="0" x="0" class="er entityBox"/><text style="dominant-baseline: middle; text-anchor: middle; font-size: 12px;" transform="translate(77.28346252441406,12)" y="0" x="0" id="text-entity-TEAM-a64c3970-9275-559c-a729-8290a050bffc" class="er entityLabel">TEAM</text><rect height="22" width="86.02029418945312" y="24" x="0" class="er attributeBoxOdd"/><text style="dominant-baseline: middle; font-size: 10.2px;" transform="translate(5,35)" y="0" x="0" id="text-entity-TEAM-a64c3970-9275-559c-a729-8290a050bffc-attr-1-type" class="er entityLabel">id</text><rect height="22" width="45.85894775390625" y="24" x="86.02029418945312" class="er attributeBoxOdd"/><text style="dominant-baseline: middle; font-size: 10.2px;" transform="translate(91.02029418945312,35)" y="0" x="0" id="text-entity-TEAM-a64c3970-9275-559c-a729-8290a050bffc-attr-1-name" class="er entityLabel">string</text><rect height="22" width="22.68768310546875" y="24" x="131.87924194335938" class="er attributeBoxOdd"/><text style="dominant-baseline: middle; font-size: 10.2px;" transform="translate(136.87924194335938,35)" y="0" x="0" id="text-entity-TEAM-a64c3970-9275-559c-a729-8290a050bffc-attr-1-key" class="er entityLabel">PK</text><rect height="22" width="86.02029418945312" y="46" x="0" class="er attributeBoxEven"/><text style="dominant-baseline: middle; font-size: 10.2px;" transform="translate(5,57)" y="0" x="0" id="text-entity-TEAM-a64c3970-9275-559c-a729-8290a050bffc-attr-2-type" class="er entityLabel">score</text><rect height="22" width="45.85894775390625" y="46" x="86.02029418945312" class="er attributeBoxEven"/><text style="dominant-baseline: middle; font-size: 10.2px;" transform="translate(91.02029418945312,57)" y="0" x="0" id="text-entity-TEAM-a64c3970-9275-559c-a729-8290a050bffc-attr-2-name" class="er entityLabel">number</text><rect height="22" width="22.68768310546875" y="46" x="131.87924194335938" class="er attributeBoxEven"/><text style="dominant-baseline: middle; font-size: 10.2px;" transform="translate(136.87924194335938,57)" y="0" x="0" id="text-entity-TEAM-a64c3970-9275-559c-a729-8290a050bffc-attr-2-key" class="er entityLabel"/><rect height="22" width="86.02029418945312" y="68" x="0" class="er attributeBoxOdd"/><text style="dominant-baseline: middle; font-size: 10.2px;" transform="translate(5,79)" y="0" x="0" id="text-entity-TEAM-a64c3970-9275-559c-a729-8290a050bffc-attr-3-type" class="er entityLabel">game_session_id</text><rect height="22" width="45.85894775390625" y="68" x="86.02029418945312" class="er attributeBoxOdd"/><text style="dominant-baseline: middle; font-size: 10.2px;" transform="translate(91.02029418945312,79)" y="0" x="0" id="text-entity-TEAM-a64c3970-9275-559c-a729-8290a050bffc-attr-3-name" class="er entityLabel">string</text><rect height="22" width="22.68768310546875" y="68" x="131.87924194335938" class="er attributeBoxOdd"/><text style="dominant-baseline: middle; font-size: 10.2px;" transform="translate(136.87924194335938,79)" y="0" x="0" id="text-entity-TEAM-a64c3970-9275-559c-a729-8290a050bffc-attr-3-key" class="er entityLabel">FK</text></g><g transform="translate(529.1338500976562,276 )" id="entity-SPECTRUM-a78d6372-e4a6-5358-8095-bbd944effd61"><rect height="134" width="154.56692504882812" y="0" x="0" class="er entityBox"/><text style="dominant-baseline: middle; text-anchor: middle; font-size: 12px;" transform="translate(77.28346252441406,12)" y="0" x="0" id="text-entity-SPECTRUM-a78d6372-e4a6-5358-8095-bbd944effd61" class="er entityLabel">SPECTRUM</text><rect height="22" width="86.02029418945312" y="24" x="0" class="er attributeBoxOdd"/><text style="dominant-baseline: middle; font-size: 10.2px;" transform="translate(5,35)" y="0" x="0" id="text-entity-SPECTRUM-a78d6372-e4a6-5358-8095-bbd944effd61-attr-1-type" class="er entityLabel">id</text><rect height="22" width="45.85894775390625" y="24" x="86.02029418945312" class="er attributeBoxOdd"/><text style="dominant-baseline: middle; font-size: 10.2px;" transform="translate(91.02029418945312,35)" y="0" x="0" id="text-entity-SPECTRUM-a78d6372-e4a6-5358-8095-bbd944effd61-attr-1-name" class="er entityLabel">string</text><rect height="22" width="22.68768310546875" y="24" x="131.87924194335938" class="er attributeBoxOdd"/><text style="dominant-baseline: middle; font-size: 10.2px;" transform="translate(136.87924194335938,35)" y="0" x="0" id="text-entity-SPECTRUM-a78d6372-e4a6-5358-8095-bbd944effd61-attr-1-key" class="er entityLabel">PK</text><rect height="22" width="86.02029418945312" y="46" x="0" class="er attributeBoxEven"/><text style="dominant-baseline: middle; font-size: 10.2px;" transform="translate(5,57)" y="0" x="0" id="text-entity-SPECTRUM-a78d6372-e4a6-5358-8095-bbd944effd61-attr-2-type" class="er entityLabel">left</text><rect height="22" width="45.85894775390625" y="46" x="86.02029418945312" class="er attributeBoxEven"/><text style="dominant-baseline: middle; font-size: 10.2px;" transform="translate(91.02029418945312,57)" y="0" x="0" id="text-entity-SPECTRUM-a78d6372-e4a6-5358-8095-bbd944effd61-attr-2-name" class="er entityLabel">string</text><rect height="22" width="22.68768310546875" y="46" x="131.87924194335938" class="er attributeBoxEven"/><text style="dominant-baseline: middle; font-size: 10.2px;" transform="translate(136.87924194335938,57)" y="0" x="0" id="text-entity-SPECTRUM-a78d6372-e4a6-5358-8095-bbd944effd61-attr-2-key" class="er entityLabel"/><rect height="22" width="86.02029418945312" y="68" x="0" class="er attributeBoxOdd"/><text style="dominant-baseline: middle; font-size: 10.2px;" transform="translate(5,79)" y="0" x="0" id="text-entity-SPECTRUM-a78d6372-e4a6-5358-8095-bbd944effd61-attr-3-type" class="er entityLabel">right</text><rect height="22" width="45.85894775390625" y="68" x="86.02029418945312" class="er attributeBoxOdd"/><text style="dominant-baseline: middle; font-size: 10.2px;" transform="translate(91.02029418945312,79)" y="0" x="0" id="text-entity-SPECTRUM-a78d6372-e4a6-5358-8095-bbd944effd61-attr-3-name" class="er entityLabel">string</text><rect height="22" width="22.68768310546875" y="68" x="131.87924194335938" class="er attributeBoxOdd"/><text style="dominant-baseline: middle; font-size: 10.2px;" transform="translate(136.87924194335938,79)" y="0" x="0" id="text-entity-SPECTRUM-a78d6372-e4a6-5358-8095-bbd944effd61-attr-3-key" class="er entityLabel"/><rect height="22" width="86.02029418945312" y="90" x="0" class="er attributeBoxEven"/><text style="dominant-baseline: middle; font-size: 10.2px;" transform="translate(5,101)" y="0" x="0" id="text-entity-SPECTRUM-a78d6372-e4a6-5358-8095-bbd944effd61-attr-4-type" class="er entityLabel">position</text><rect height="22" width="45.85894775390625" y="90" x="86.02029418945312" class="er attributeBoxEven"/><text style="dominant-baseline: middle; font-size: 10.2px;" transform="translate(91.02029418945312,101)" y="0" x="0" id="text-entity-SPECTRUM-a78d6372-e4a6-5358-8095-bbd944effd61-attr-4-name" class="er entityLabel">number</text><rect height="22" width="22.68768310546875" y="90" x="131.87924194335938" class="er attributeBoxEven"/><text style="dominant-baseline: middle; font-size: 10.2px;" transform="translate(136.87924194335938,101)" y="0" x="0" id="text-entity-SPECTRUM-a78d6372-e4a6-5358-8095-bbd944effd61-attr-4-key" class="er entityLabel"/><rect height="22" width="86.02029418945312" y="112" x="0" class="er attributeBoxOdd"/><text style="dominant-baseline: middle; font-size: 10.2px;" transform="translate(5,123)" y="0" x="0" id="text-entity-SPECTRUM-a78d6372-e4a6-5358-8095-bbd944effd61-attr-5-type" class="er entityLabel">game_session_id</text><rect height="22" width="45.85894775390625" y="112" x="86.02029418945312" class="er attributeBoxOdd"/><text style="dominant-baseline: middle; font-size: 10.2px;" transform="translate(91.02029418945312,123)" y="0" x="0" id="text-entity-SPECTRUM-a78d6372-e4a6-5358-8095-bbd944effd61-attr-5-name" class="er entityLabel">string</text><rect height="22" width="22.68768310546875" y="112" x="131.87924194335938" class="er attributeBoxOdd"/><text style="dominant-baseline: middle; font-size: 10.2px;" transform="translate(136.87924194335938,123)" y="0" x="0" id="text-entity-SPECTRUM-a78d6372-e4a6-5358-8095-bbd944effd61-attr-5-key" class="er entityLabel">FK</text></g><g transform="translate(783.7007751464844,309 )" id="entity-TARGET-4eb98959-9ffb-5384-a9ee-d1ddde96c2a2"><rect height="68" width="154.23324584960938" y="0" x="0" class="er entityBox"/><text style="dominant-baseline: middle; text-anchor: middle; font-size: 12px;" transform="translate(77.11662292480469,12)" y="0" x="0" id="text-entity-TARGET-4eb98959-9ffb-5384-a9ee-d1ddde96c2a2" class="er entityLabel">TARGET</text><rect height="22" width="86.02029418945312" y="24" x="0" class="er attributeBoxOdd"/><text style="dominant-baseline: middle; font-size: 10.2px;" transform="translate(5,35)" y="0" x="0" id="text-entity-TARGET-4eb98959-9ffb-5384-a9ee-d1ddde96c2a2-attr-1-type" class="er entityLabel">position</text><rect height="22" width="45.85894775390625" y="24" x="86.02029418945312" class="er attributeBoxOdd"/><text style="dominant-baseline: middle; font-size: 10.2px;" transform="translate(91.02029418945312,35)" y="0" x="0" id="text-entity-TARGET-4eb98959-9ffb-5384-a9ee-d1ddde96c2a2-attr-1-name" class="er entityLabel">number</text><rect height="22" width="22.35400390625" y="24" x="131.87924194335938" class="er attributeBoxOdd"/><text style="dominant-baseline: middle; font-size: 10.2px;" transform="translate(136.87924194335938,35)" y="0" x="0" id="text-entity-TARGET-4eb98959-9ffb-5384-a9ee-d1ddde96c2a2-attr-1-key" class="er entityLabel"/><rect height="22" width="86.02029418945312" y="46" x="0" class="er attributeBoxEven"/><text style="dominant-baseline: middle; font-size: 10.2px;" transform="translate(5,57)" y="0" x="0" id="text-entity-TARGET-4eb98959-9ffb-5384-a9ee-d1ddde96c2a2-attr-2-type" class="er entityLabel">game_session_id</text><rect height="22" width="45.85894775390625" y="46" x="86.02029418945312" class="er attributeBoxEven"/><text style="dominant-baseline: middle; font-size: 10.2px;" transform="translate(91.02029418945312,57)" y="0" x="0" id="text-entity-TARGET-4eb98959-9ffb-5384-a9ee-d1ddde96c2a2-attr-2-name" class="er entityLabel">string</text><rect height="22" width="22.35400390625" y="46" x="131.87924194335938" class="er attributeBoxEven"/><text style="dominant-baseline: middle; font-size: 10.2px;" transform="translate(136.87924194335938,57)" y="0" x="0" id="text-entity-TARGET-4eb98959-9ffb-5384-a9ee-d1ddde96c2a2-attr-2-key" class="er entityLabel">FK</text></g><g transform="translate(1037.9340209960938,298 )" id="entity-CLUE-1a8bd194-4631-522e-a494-b33ddcb646c2"><rect height="90" width="145.3270721435547" y="0" x="0" class="er entityBox"/><text style="dominant-baseline: middle; text-anchor: middle; font-size: 12px;" transform="translate(72.66353607177734,12)" y="0" x="0" id="text-entity-CLUE-1a8bd194-4631-522e-a494-b33ddcb646c2" class="er entityLabel">CLUE</text><rect height="22" width="86.02029418945312" y="24" x="0" class="er attributeBoxOdd"/><text style="dominant-baseline: middle; font-size: 10.2px;" transform="translate(5,35)" y="0" x="0" id="text-entity-CLUE-1a8bd194-4631-522e-a494-b33ddcb646c2-attr-1-type" class="er entityLabel">id</text><rect height="22" width="36.61909484863281" y="24" x="86.02029418945312" class="er attributeBoxOdd"/><text style="dominant-baseline: middle; font-size: 10.2px;" transform="translate(91.02029418945312,35)" y="0" x="0" id="text-entity-CLUE-1a8bd194-4631-522e-a494-b33ddcb646c2-attr-1-name" class="er entityLabel">string</text><rect height="22" width="22.68768310546875" y="24" x="122.63938903808594" class="er attributeBoxOdd"/><text style="dominant-baseline: middle; font-size: 10.2px;" transform="translate(127.63938903808594,35)" y="0" x="0" id="text-entity-CLUE-1a8bd194-4631-522e-a494-b33ddcb646c2-attr-1-key" class="er entityLabel">PK</text><rect height="22" width="86.02029418945312" y="46" x="0" class="er attributeBoxEven"/><text style="dominant-baseline: middle; font-size: 10.2px;" transform="translate(5,57)" y="0" x="0" id="text-entity-CLUE-1a8bd194-4631-522e-a494-b33ddcb646c2-attr-2-type" class="er entityLabel">text</text><rect height="22" width="36.61909484863281" y="46" x="86.02029418945312" class="er attributeBoxEven"/><text style="dominant-baseline: middle; font-size: 10.2px;" transform="translate(91.02029418945312,57)" y="0" x="0" id="text-entity-CLUE-1a8bd194-4631-522e-a494-b33ddcb646c2-attr-2-name" class="er entityLabel">string</text><rect height="22" width="22.68768310546875" y="46" x="122.63938903808594" class="er attributeBoxEven"/><text style="dominant-baseline: middle; font-size: 10.2px;" transform="translate(127.63938903808594,57)" y="0" x="0" id="text-entity-CLUE-1a8bd194-4631-522e-a494-b33ddcb646c2-attr-2-key" class="er entityLabel"/><rect height="22" width="86.02029418945312" y="68" x="0" class="er attributeBoxOdd"/><text style="dominant-baseline: middle; font-size: 10.2px;" transform="translate(5,79)" y="0" x="0" id="text-entity-CLUE-1a8bd194-4631-522e-a494-b33ddcb646c2-attr-3-type" class="er entityLabel">game_session_id</text><rect height="22" width="36.61909484863281" y="68" x="86.02029418945312" class="er attributeBoxOdd"/><text style="dominant-baseline: middle; font-size: 10.2px;" transform="translate(91.02029418945312,79)" y="0" x="0" id="text-entity-CLUE-1a8bd194-4631-522e-a494-b33ddcb646c2-attr-3-name" class="er entityLabel">string</text><rect height="22" width="22.68768310546875" y="68" x="122.63938903808594" class="er attributeBoxOdd"/><text style="dominant-baseline: middle; font-size: 10.2px;" transform="translate(127.63938903808594,79)" y="0" x="0" id="text-entity-CLUE-1a8bd194-4631-522e-a494-b33ddcb646c2-attr-3-key" class="er entityLabel">FK</text></g><g transform="translate(1283.2610931396484,298 )" id="entity-GUESS-fd11c84a-133a-55da-ae20-2ca4e1c31ced"><rect height="90" width="154.56692504882812" y="0" x="0" class="er entityBox"/><text style="dominant-baseline: middle; text-anchor: middle; font-size: 12px;" transform="translate(77.28346252441406,12)" y="0" x="0" id="text-entity-GUESS-fd11c84a-133a-55da-ae20-2ca4e1c31ced" class="er entityLabel">GUESS</text><rect height="22" width="86.02029418945312" y="24" x="0" class="er attributeBoxOdd"/><text style="dominant-baseline: middle; font-size: 10.2px;" transform="translate(5,35)" y="0" x="0" id="text-entity-GUESS-fd11c84a-133a-55da-ae20-2ca4e1c31ced-attr-1-type" class="er entityLabel">id</text><rect height="22" width="45.85894775390625" y="24" x="86.02029418945312" class="er attributeBoxOdd"/><text style="dominant-baseline: middle; font-size: 10.2px;" transform="translate(91.02029418945312,35)" y="0" x="0" id="text-entity-GUESS-fd11c84a-133a-55da-ae20-2ca4e1c31ced-attr-1-name" class="er entityLabel">string</text><rect height="22" width="22.68768310546875" y="24" x="131.87924194335938" class="er attributeBoxOdd"/><text style="dominant-baseline: middle; font-size: 10.2px;" transform="translate(136.87924194335938,35)" y="0" x="0" id="text-entity-GUESS-fd11c84a-133a-55da-ae20-2ca4e1c31ced-attr-1-key" class="er entityLabel">PK</text><rect height="22" width="86.02029418945312" y="46" x="0" class="er attributeBoxEven"/><text style="dominant-baseline: middle; font-size: 10.2px;" transform="translate(5,57)" y="0" x="0" id="text-entity-GUESS-fd11c84a-133a-55da-ae20-2ca4e1c31ced-attr-2-type" class="er entityLabel">position</text><rect height="22" width="45.85894775390625" y="46" x="86.02029418945312" class="er attributeBoxEven"/><text style="dominant-baseline: middle; font-size: 10.2px;" transform="translate(91.02029418945312,57)" y="0" x="0" id="text-entity-GUESS-fd11c84a-133a-55da-ae20-2ca4e1c31ced-attr-2-name" class="er entityLabel">number</text><rect height="22" width="22.68768310546875" y="46" x="131.87924194335938" class="er attributeBoxEven"/><text style="dominant-baseline: middle; font-size: 10.2px;" transform="translate(136.87924194335938,57)" y="0" x="0" id="text-entity-GUESS-fd11c84a-133a-55da-ae20-2ca4e1c31ced-attr-2-key" class="er entityLabel"/><rect height="22" width="86.02029418945312" y="68" x="0" class="er attributeBoxOdd"/><text style="dominant-baseline: middle; font-size: 10.2px;" transform="translate(5,79)" y="0" x="0" id="text-entity-GUESS-fd11c84a-133a-55da-ae20-2ca4e1c31ced-attr-3-type" class="er entityLabel">game_session_id</text><rect height="22" width="45.85894775390625" y="68" x="86.02029418945312" class="er attributeBoxOdd"/><text style="dominant-baseline: middle; font-size: 10.2px;" transform="translate(91.02029418945312,79)" y="0" x="0" id="text-entity-GUESS-fd11c84a-133a-55da-ae20-2ca4e1c31ced-attr-3-name" class="er entityLabel">string</text><rect height="22" width="22.68768310546875" y="68" x="131.87924194335938" class="er attributeBoxOdd"/><text style="dominant-baseline: middle; font-size: 10.2px;" transform="translate(136.87924194335938,79)" y="0" x="0" id="text-entity-GUESS-fd11c84a-133a-55da-ae20-2ca4e1c31ced-attr-3-key" class="er entityLabel">FK</text></g><g transform="translate(1537.8280181884766,298 )" id="entity-SCORE-30c49b42-9cec-5dbc-83af-dba234d19517"><rect height="90" width="154.56692504882812" y="0" x="0" class="er entityBox"/><text style="dominant-baseline: middle; text-anchor: middle; font-size: 12px;" transform="translate(77.28346252441406,12)" y="0" x="0" id="text-entity-SCORE-30c49b42-9cec-5dbc-83af-dba234d19517" class="er entityLabel">SCORE</text><rect height="22" width="86.02029418945312" y="24" x="0" class="er attributeBoxOdd"/><text style="dominant-baseline: middle; font-size: 10.2px;" transform="translate(5,35)" y="0" x="0" id="text-entity-SCORE-30c49b42-9cec-5dbc-83af-dba234d19517-attr-1-type" class="er entityLabel">id</text><rect height="22" width="45.85894775390625" y="24" x="86.02029418945312" class="er attributeBoxOdd"/><text style="dominant-baseline: middle; font-size: 10.2px;" transform="translate(91.02029418945312,35)" y="0" x="0" id="text-entity-SCORE-30c49b42-9cec-5dbc-83af-dba234d19517-attr-1-name" class="er entityLabel">string</text><rect height="22" width="22.68768310546875" y="24" x="131.87924194335938" class="er attributeBoxOdd"/><text style="dominant-baseline: middle; font-size: 10.2px;" transform="translate(136.87924194335938,35)" y="0" x="0" id="text-entity-SCORE-30c49b42-9cec-5dbc-83af-dba234d19517-attr-1-key" class="er entityLabel">PK</text><rect height="22" width="86.02029418945312" y="46" x="0" class="er attributeBoxEven"/><text style="dominant-baseline: middle; font-size: 10.2px;" transform="translate(5,57)" y="0" x="0" id="text-entity-SCORE-30c49b42-9cec-5dbc-83af-dba234d19517-attr-2-type" class="er entityLabel">points</text><rect height="22" width="45.85894775390625" y="46" x="86.02029418945312" class="er attributeBoxEven"/><text style="dominant-baseline: middle; font-size: 10.2px;" transform="translate(91.02029418945312,57)" y="0" x="0" id="text-entity-SCORE-30c49b42-9cec-5dbc-83af-dba234d19517-attr-2-name" class="er entityLabel">number</text><rect height="22" width="22.68768310546875" y="46" x="131.87924194335938" class="er attributeBoxEven"/><text style="dominant-baseline: middle; font-size: 10.2px;" transform="translate(136.87924194335938,57)" y="0" x="0" id="text-entity-SCORE-30c49b42-9cec-5dbc-83af-dba234d19517-attr-2-key" class="er entityLabel"/><rect height="22" width="86.02029418945312" y="68" x="0" class="er attributeBoxOdd"/><text style="dominant-baseline: middle; font-size: 10.2px;" transform="translate(5,79)" y="0" x="0" id="text-entity-SCORE-30c49b42-9cec-5dbc-83af-dba234d19517-attr-3-type" class="er entityLabel">game_session_id</text><rect height="22" width="45.85894775390625" y="68" x="86.02029418945312" class="er attributeBoxOdd"/><text style="dominant-baseline: middle; font-size: 10.2px;" transform="translate(91.02029418945312,79)" y="0" x="0" id="text-entity-SCORE-30c49b42-9cec-5dbc-83af-dba234d19517-attr-3-name" class="er entityLabel">string</text><rect height="22" width="22.68768310546875" y="68" x="131.87924194335938" class="er attributeBoxOdd"/><text style="dominant-baseline: middle; font-size: 10.2px;" transform="translate(136.87924194335938,79)" y="0" x="0" id="text-entity-SCORE-30c49b42-9cec-5dbc-83af-dba234d19517-attr-3-key" class="er entityLabel">FK</text></g><rect height="14" width="17.861328125" y="162.8846893310547" x="430.19635009765625" class="er relationshipLabelBox"/><text style="text-anchor: middle; dominant-baseline: middle; font-size: 12px;" y="169.8846893310547" x="439.12701416015625" id="rel1" class="er relationshipLabel">has</text><rect height="14" width="17.861328125" y="169.44113159179688" x="548.448974609375" class="er relationshipLabelBox"/><text style="text-anchor: middle; dominant-baseline: middle; font-size: 12px;" y="176.44113159179688" x="557.379638671875" id="rel2" class="er relationshipLabel">has</text><rect height="14" width="17.861328125" y="179.02481079101562" x="680.67041015625" class="er relationshipLabelBox"/><text style="text-anchor: middle; dominant-baseline: middle; font-size: 12px;" y="186.02481079101562" x="689.60107421875" id="rel3" class="er relationshipLabel">has</text><rect height="14" width="17.861328125" y="235.5" x="851.88671875" class="er relationshipLabelBox"/><text style="text-anchor: middle; dominant-baseline: middle; font-size: 12px;" y="242.5" x="860.8173828125" id="rel4" class="er relationshipLabel">has</text><rect height="14" width="17.861328125" y="184.994873046875" x="1028.4197998046875" class="er relationshipLabelBox"/><text style="text-anchor: middle; dominant-baseline: middle; font-size: 12px;" y="191.994873046875" x="1037.3504638671875" id="rel5" class="er relationshipLabel">has</text><rect height="14" width="17.861328125" y="169.7159423828125" x="1150.8154296875" class="er relationshipLabelBox"/><text style="text-anchor: middle; dominant-baseline: middle; font-size: 12px;" y="176.7159423828125" x="1159.74609375" id="rel6" class="er relationshipLabel">has</text><rect height="14" width="17.861328125" y="164.7290496826172" x="1275.507568359375" class="er relationshipLabelBox"/><text style="text-anchor: middle; dominant-baseline: middle; font-size: 12px;" y="171.7290496826172" x="1284.438232421875" id="rel7" class="er relationshipLabel">has</text></svg>